<svg width="26" height="26" fill="none" xmlns="http://www.w3.org/2000/svg">
  <path d="M25.467 12.6a12.555 12.555 0 0 1-11.014 12.434.492.492 0 0 1-.541-.482v-9.064H16.8a.963.963 0 0 0 .963-1.023.987.987 0 0 0-.999-.903h-2.852v-2.889a1.926 1.926 0 0 1 1.925-1.926h1.927a.962.962 0 0 0 .962-1.023.987.987 0 0 0-.999-.903h-1.89a3.852 3.852 0 0 0-3.851 3.852v2.89h-2.89a.962.962 0 0 0-.962 1.022.987.987 0 0 0 .999.903h2.853v9.064a.48.48 0 0 1-.53.482C5.1 24.264.189 18.738.442 12.13a12.519 12.519 0 0 1 25.025.47Z" fill="#fff"/>
</svg>