<svg width="26" height="20" viewBox="0 0 26 20" fill="none" xmlns="http://www.w3.org/2000/svg">
<path d="M25.8135 9.47566V11.3757C25.8135 11.6276 25.7037 11.8693 25.5084 12.0474C25.313 12.2256 25.0481 12.3257 24.7718 12.3257H1.85514C1.57888 12.3257 1.31392 12.2256 1.11857 12.0474C0.923223 11.8693 0.813477 11.6276 0.813477 11.3757V9.47566C0.813477 9.2237 0.923223 8.98207 1.11857 8.80391C1.31392 8.62575 1.57888 8.52566 1.85514 8.52566H24.7718C25.0481 8.52566 25.313 8.62575 25.5084 8.80391C25.7037 8.98207 25.8135 9.2237 25.8135 9.47566ZM24.7718 16.1257H1.85514C1.57888 16.1257 1.31392 16.2257 1.11857 16.4039C0.923223 16.5821 0.813477 16.8237 0.813477 17.0757V18.9757C0.813477 19.2276 0.923223 19.4693 1.11857 19.6474C1.31392 19.8256 1.57888 19.9257 1.85514 19.9257H24.7718C25.0481 19.9257 25.313 19.8256 25.5084 19.6474C25.7037 19.4693 25.8135 19.2276 25.8135 18.9757V17.0757C25.8135 16.8237 25.7037 16.5821 25.5084 16.4039C25.313 16.2257 25.0481 16.1257 24.7718 16.1257ZM24.7718 0.925659H1.85514C1.57888 0.925659 1.31392 1.02575 1.11857 1.20391C0.923223 1.38207 0.813477 1.6237 0.813477 1.87566V3.77566C0.813477 4.02761 0.923223 4.26925 1.11857 4.44741C1.31392 4.62557 1.57888 4.72566 1.85514 4.72566H24.7718C25.0481 4.72566 25.313 4.62557 25.5084 4.44741C25.7037 4.26925 25.8135 4.02761 25.8135 3.77566V1.87566C25.8135 1.6237 25.7037 1.38207 25.5084 1.20391C25.313 1.02575 25.0481 0.925659 24.7718 0.925659Z" fill="url(#paint0_linear_207_515)"/>
<defs>
<linearGradient id="paint0_linear_207_515" x1="13.3135" y1="0.925659" x2="13.3135" y2="19.9257" gradientUnits="userSpaceOnUse">
<stop stop-color="#0155A2"/>
<stop offset="1" stop-color="#003566"/>
</linearGradient>
</defs>
</svg>
