<svg width="27" height="24" viewBox="0 0 27 24" fill="none" xmlns="http://www.w3.org/2000/svg">
<path d="M26.3009 4.54399L22.6657 8.16718C21.9435 16.5812 14.8415 23.1174 6.35532 23.1174C4.60993 23.1174 3.16547 22.8405 2.07008 22.2988C1.19137 21.8535 0.830254 21.384 0.733956 21.2396C0.654282 21.1185 0.602941 20.9811 0.58376 20.8375C0.564579 20.6939 0.578052 20.5478 0.623175 20.4101C0.668298 20.2724 0.743908 20.1467 0.844371 20.0423C0.944834 19.9379 1.06756 19.8575 1.20341 19.8071C1.22748 19.7951 4.06826 18.7118 5.90995 16.6293C4.76779 15.8161 3.7639 14.8244 2.93676 13.6923C1.28767 11.4533 -0.457725 7.56532 0.58951 1.7634C0.622431 1.59092 0.701322 1.43052 0.817852 1.29916C0.934383 1.1678 1.08423 1.07035 1.25156 1.0171C1.41942 0.962131 1.59917 0.954393 1.77113 0.994731C1.9431 1.03507 2.10065 1.12193 2.22657 1.2458C2.26268 1.29395 6.27106 5.24215 11.1702 6.51809V5.78382C11.1749 5.02032 11.33 4.26522 11.6265 3.56165C11.9231 2.85807 12.3553 2.2198 12.8986 1.68327C13.4418 1.14675 14.0854 0.722476 14.7926 0.434684C15.4998 0.146892 16.2568 0.00121524 17.0203 0.00597223C18.0224 0.0202642 19.0036 0.29388 19.8685 0.800162C20.7334 1.30644 21.4524 2.02813 21.9555 2.8949H25.6148C25.8049 2.8943 25.991 2.95 26.1495 3.05496C26.308 3.15992 26.4319 3.30946 26.5056 3.48472C26.575 3.66259 26.5926 3.85647 26.5563 4.04393C26.5201 4.23138 26.4316 4.40476 26.3009 4.54399Z" fill="white"/>
</svg>
